# https://github.com/mikedh/trimesh
v -0.05635700 0.04827200 0.07993100
v -0.02132700 0.06430200 0.07933700
v -0.02132700 0.06430200 0.07815000
v -0.02132700 0.05658400 0.07518100
v -0.02132700 0.05836400 0.08052500
v -0.05042200 0.04589300 0.07518100
v -0.03855400 0.06014300 0.07755800
v -0.04863800 0.04589300 0.07993100
v -0.03558100 0.06073600 0.08111900
v -0.03261100 0.05777000 0.07518100
v -0.05279700 0.04648800 0.08111900
v -0.04745600 0.05657900 0.07815000
v -0.02132700 0.06251800 0.08111900
v -0.05754600 0.04589300 0.07815000
v -0.04567500 0.05598600 0.08111900
v -0.04745600 0.04589300 0.07518100
v -0.03379700 0.06251800 0.07993100
v -0.02132700 0.05658400 0.07755800
v -0.04804700 0.04945900 0.07518100
v -0.02132700 0.05895400 0.07518100
v -0.02429700 0.06430200 0.07815000
v -0.05338800 0.05064700 0.07755800
v -0.04211500 0.05361300 0.07518100
f 2 3 21
f 16 4 18
f 8 16 18
f 10 6 19
f 3 4 20
f 4 10 20
f 10 19 23
f 20 10 21
f 10 7 21
f 19 6 22
f 7 17 21
f 3 20 21
f 1 12 22
f 6 14 22
f 14 1 22
f 12 19 22
f 7 10 23
f 12 7 23
f 5 8 18
f 17 2 21
f 4 5 18
f 12 1 15
f 15 9 17
f 12 15 17
f 19 12 23
f 3 2 4
f 4 2 5
f 8 5 11
f 5 2 13
f 11 5 13
f 9 11 13
f 6 8 14
f 4 6 10
f 8 11 14
f 1 11 15
f 11 9 15
f 6 4 16
f 8 6 16
f 7 12 17
f 13 2 17
f 11 1 14
f 9 13 17

