# https://github.com/mikedh/trimesh
v 0.01430200 0.03579800 0.07933700
v 0.01549000 0.04767500 0.07874300
v 0.01549000 0.04767500 0.07815000
v 0.00420700 0.04767500 0.07518100
v 0.01667700 0.03579800 0.07518100
v 0.00895900 0.04767500 0.08111900
v 0.02142700 0.03579800 0.08052500
v 0.02202200 0.03639200 0.07815000
v 0.00480200 0.04708100 0.07874300
v 0.01370800 0.03579800 0.07518100
v 0.00895900 0.04708100 0.07518100
v 0.01489500 0.04589200 0.08111900
v 0.01905200 0.03639200 0.08111900
v 0.01549000 0.04708100 0.07755700
f 5 4 11
f 2 6 12
f 7 2 12
f 7 12 13
f 6 1 13
f 12 6 13
f 4 3 11
f 3 8 14
f 8 5 14
f 11 3 14
f 1 7 13
f 9 4 10
f 5 1 10
f 4 5 10
f 1 9 10
f 2 3 4
f 2 4 6
f 1 5 7
f 3 2 8
f 5 11 14
f 7 5 8
f 1 6 9
f 6 4 9
f 2 7 8

