# https://github.com/mikedh/trimesh
v -0.02073100 -0.02417800 0.04846200
v -0.00529400 -0.01942800 0.07518100
v -0.00529400 -0.02121000 0.07518100
v -0.00529400 -0.01883400 0.04074200
v -0.02132700 -0.02239700 0.07518100
v -0.00886000 -0.02239700 0.04074200
v -0.02132700 -0.02180300 0.04074200
v -0.01776200 -0.02417800 0.07518100
v -0.01004500 -0.01883400 0.04133900
v -0.00588900 -0.01883400 0.07161400
v -0.01360600 -0.02358400 0.04133900
v -0.01004500 -0.02299000 0.07518100
v -0.00529400 -0.02121000 0.04133900
v -0.02132700 -0.02180300 0.06151800
v -0.02132700 -0.02417800 0.07518100
v -0.02132700 -0.02358400 0.04074200
f 10 9 14
f 3 12 13
f 7 5 14
f 9 7 14
f 5 10 14
f 5 7 15
f 1 15 16
f 8 5 15
f 7 6 16
f 6 11 16
f 11 1 16
f 6 4 13
f 1 8 15
f 4 3 13
f 4 6 7
f 11 6 12
f 15 7 16
f 2 3 4
f 3 2 5
f 3 5 8
f 4 7 9
f 12 6 13
f 5 2 10
f 4 9 10
f 8 1 11
f 8 11 12
f 3 8 12
f 2 4 10

