# https://github.com/mikedh/trimesh
v -0.03261000 0.00135600 0.02648500
v -0.02251700 -0.02358500 0.00570400
v -0.02667400 -0.02298900 0.00392400
v -0.03201500 -0.02239600 0.04311400
v -0.02132700 -0.00933700 0.03717500
v -0.02132700 -0.00577000 0.01164300
v -0.03261000 -0.01348500 0.00392400
v -0.02132700 -0.02358500 0.04311400
v -0.03261000 -0.02180200 0.00511500
v -0.03261000 -0.00636800 0.03776300
v -0.02132700 -0.01586000 0.00332800
v -0.02132700 -0.00280100 0.02945200
v -0.03261000 -0.00458400 0.00986300
v -0.03201500 0.00135600 0.02174100
v -0.02132700 -0.02298900 0.00332800
v -0.03261000 -0.02002000 0.04311400
v -0.02726400 -0.02358500 0.03242000
v -0.02132700 -0.00221100 0.02054900
v -0.03201500 -0.00042600 0.03123200
v -0.02132700 -0.02180200 0.04311400
v -0.03201500 -0.00042600 0.01580200
v -0.03261000 -0.02120900 0.00332800
v -0.03261000 -0.02239600 0.03360800
v -0.02845200 -0.02298900 0.00629900
v -0.03201500 -0.00993000 0.03955100
v -0.02192200 -0.00696200 0.03538800
v -0.03201500 -0.00577000 0.00867900
v -0.02667400 -0.02358500 0.04311400
v -0.02132700 -0.00933700 0.00808300
v -0.02132700 -0.00221100 0.02708100
f 17 23 24
f 10 5 26
f 16 20 25
f 20 5 25
f 10 16 25
f 3 2 24
f 23 9 24
f 2 17 24
f 9 3 24
f 5 12 26
f 5 10 25
f 19 10 26
f 1 12 30
f 11 7 27
f 13 6 27
f 7 13 27
f 8 4 28
f 17 8 28
f 4 23 28
f 23 17 28
f 6 11 29
f 11 27 29
f 27 6 29
f 14 1 30
f 12 18 30
f 16 9 23
f 12 19 26
f 4 16 23
f 9 7 22
f 15 3 22
f 11 15 22
f 18 14 30
f 6 5 8
f 1 7 9
f 1 9 10
f 6 8 11
f 7 1 13
f 2 3 15
f 8 2 15
f 11 8 15
f 4 8 16
f 10 9 16
f 5 6 12
f 12 6 18
f 2 8 17
f 3 9 22
f 14 18 21
f 18 6 21
f 7 11 22
f 6 13 21
f 1 14 21
f 13 1 21
f 16 8 20
f 8 5 20
f 12 1 19
f 1 10 19

