# https://github.com/mikedh/trimesh
v 0.01964700 0.00729400 0.07398800
v 0.01252100 -0.00339500 0.04074200
v 0.01489700 -0.00339500 0.04074200
v 0.01311500 -0.00339500 0.07518100
v 0.01667700 0.00729400 0.04371200
v 0.01905300 0.00551300 0.04074200
v 0.01549100 -0.00339500 0.07518100
v 0.01727100 0.00729400 0.07280100
v 0.01370900 0.00313700 0.04074200
v 0.02024100 0.00670000 0.06448800
v 0.01608400 -0.00220600 0.04074200
v 0.01311500 -0.00220600 0.07518100
v 0.01905300 0.00729400 0.04074200
v 0.01786500 0.00135700 0.07518100
v 0.01786500 0.00729400 0.07518100
v 0.01845900 0.00313700 0.04133900
f 10 6 13
f 10 1 14
f 7 11 14
f 11 10 14
f 12 7 14
f 10 11 16
f 1 8 15
f 8 12 15
f 14 1 15
f 6 10 16
f 1 10 13
f 12 14 15
f 9 5 13
f 6 9 13
f 9 2 12
f 5 1 13
f 11 6 16
f 2 3 4
f 3 2 6
f 4 3 7
f 8 5 9
f 1 5 8
f 3 6 11
f 7 3 11
f 2 4 12
f 4 7 12
f 8 9 12
f 6 2 9

