# https://github.com/mikedh/trimesh
v -0.04032700 0.05420800 0.04370800
v -0.02133100 0.05895700 0.07518100
v -0.02133100 0.05658200 0.07518100
v -0.04211100 0.05064400 0.07518100
v -0.02251700 0.05598700 0.04370800
v -0.03557700 0.05658200 0.07518100
v -0.02667300 0.05836300 0.04370800
v -0.04092100 0.05064400 0.04370800
v -0.04211100 0.05301900 0.07518100
v -0.02133100 0.05836300 0.04370800
v -0.04092100 0.05064400 0.07518100
v -0.02904900 0.05836300 0.07518100
v -0.03260700 0.05717500 0.04370800
v -0.04211100 0.05301900 0.04370800
v -0.04211100 0.05064400 0.04370800
v -0.04151500 0.05361400 0.07518100
v -0.02133100 0.05658200 0.04370800
v -0.03795100 0.05539300 0.04370800
f 1 8 14
f 4 9 14
f 8 4 15
f 4 14 15
f 14 8 15
f 6 1 16
f 9 6 16
f 10 3 17
f 14 9 16
f 3 5 17
f 5 10 17
f 1 6 18
f 13 1 18
f 6 12 13
f 1 14 16
f 7 1 13
f 8 5 11
f 2 7 12
f 6 13 18
f 12 7 13
f 4 2 6
f 5 1 7
f 1 5 8
f 4 6 9
f 2 3 10
f 3 2 4
f 7 2 10
f 3 4 11
f 5 3 11
f 4 8 11
f 6 2 12
f 5 7 10

