# https://github.com/mikedh/trimesh
v -0.05992500 0.02867000 0.00451700
v -0.03439200 0.03401500 0.02886200
v -0.03795800 0.03401700 0.03420400
v -0.04270700 0.02095200 0.03361200
v -0.05933100 0.03342200 0.04192700
v -0.06170300 0.02095200 0.04192700
v -0.05220300 0.02095200 0.00629900
v -0.05398400 0.03401700 0.00392200
v -0.06111200 0.02095200 0.00451700
v -0.04330000 0.02095200 0.01580000
v -0.03973900 0.03401700 0.01401800
v -0.04627000 0.03401700 0.03954900
v -0.05814100 0.03401700 0.00570400
v -0.04864500 0.02095200 0.03895400
v -0.06111200 0.02807800 0.03420400
v -0.04092900 0.02095200 0.02292400
v -0.03498800 0.03342200 0.02173700
v -0.05576700 0.03401700 0.04192700
v -0.04449000 0.03342200 0.00926800
v -0.06170300 0.02154700 0.00986300
v -0.04805100 0.02095200 0.00926800
v -0.05695400 0.02095200 0.00392200
v -0.06051800 0.02807800 0.00748600
v -0.06170300 0.02451600 0.04192700
v -0.05161000 0.02154700 0.04014100
v -0.04092900 0.02095200 0.02767100
v -0.05339000 0.03223400 0.00392200
v -0.05992500 0.03223400 0.03895400
v -0.03439200 0.03342200 0.02886200
v -0.04151900 0.03342200 0.03717200
v -0.04567700 0.02154700 0.03717200
v -0.03558100 0.03342200 0.03182600
v -0.05873800 0.03163900 0.00392200
v -0.05873800 0.03401700 0.04192700
v -0.05873800 0.03342200 0.00926800
f 4 26 29
f 12 14 30
f 3 12 30
f 26 16 29
f 30 14 31
f 17 2 29
f 8 19 27
f 15 24 28
f 24 5 28
f 23 15 28
f 7 22 27
f 22 8 27
f 14 4 31
f 16 17 29
f 3 30 31
f 5 13 35
f 2 3 32
f 28 5 35
f 13 23 35
f 19 7 27
f 18 13 34
f 5 18 34
f 13 5 34
f 31 4 32
f 22 9 33
f 1 13 33
f 13 8 33
f 9 1 33
f 3 31 32
f 4 29 32
f 29 2 32
f 8 22 33
f 4 16 26
f 9 20 23
f 18 6 25
f 23 28 35
f 4 6 7
f 7 6 9
f 4 7 10
f 3 2 11
f 8 3 11
f 3 8 12
f 12 8 13
f 6 4 14
f 4 10 16
f 12 18 25
f 11 2 17
f 10 11 17
f 5 6 18
f 12 13 18
f 16 10 17
f 9 6 20
f 14 12 25
f 6 14 25
f 8 11 19
f 20 6 24
f 6 5 24
f 20 15 23
f 15 20 24
f 1 9 23
f 7 9 22
f 19 11 21
f 7 19 21
f 11 10 21
f 10 7 21
f 13 1 23

