# https://github.com/mikedh/trimesh
v 0.01845900 0.02688600 0.00332800
v 0.00480100 0.00729400 -0.00023500
v 0.00836400 0.00729400 -0.00082900
v 0.00539500 0.03401700 -0.00082900
v 0.00599000 0.02926100 0.00273400
v 0.01489600 0.00729400 0.00392200
v 0.01667700 0.01442200 -0.00023500
v 0.01311300 0.03401700 0.00392200
v 0.01370600 0.03223300 -0.00023500
v 0.00599000 0.00729400 0.00273400
v 0.01845900 0.00789100 0.00392200
v 0.01370600 0.00729400 -0.00082900
v 0.00480100 0.03401700 0.00154600
v 0.01133500 0.00848500 0.00392200
v 0.01608300 0.03401700 0.00392200
v 0.01905300 0.01976900 0.00214000
v 0.01489600 0.02154200 -0.00082900
v 0.00480100 0.00729400 0.00214000
v 0.01786400 0.01026600 0.00095300
v 0.01667700 0.02867000 0.00095300
v 0.01014500 0.03401700 -0.00082900
f 7 16 19
f 2 10 18
f 10 5 18
f 13 2 18
f 5 13 18
f 12 7 19
f 17 4 21
f 16 11 19
f 4 15 21
f 15 1 20
f 16 7 20
f 1 16 20
f 17 9 20
f 7 17 20
f 15 9 21
f 7 12 17
f 9 15 20
f 12 4 17
f 11 12 19
f 8 11 15
f 1 11 16
f 9 17 21
f 3 2 4
f 2 6 10
f 8 6 11
f 3 4 12
f 6 3 12
f 11 6 12
f 2 3 6
f 8 4 13
f 5 8 13
f 8 5 14
f 6 8 14
f 5 10 14
f 10 6 14
f 4 8 15
f 11 1 15
f 4 2 13

