# https://github.com/mikedh/trimesh
v -0.05279800 0.04352000 0.01223700
v -0.03201600 0.05717600 0.04370800
v -0.03261300 0.05717600 0.04370800
v -0.05636100 0.03401700 0.04370800
v -0.03201600 0.03520500 0.02410700
v -0.03201600 0.05598800 0.00392200
v -0.05695500 0.03401700 0.00392200
v -0.04626700 0.05064300 0.04370800
v -0.03795700 0.03401700 0.03479700
v -0.04211300 0.05242200 0.00570900
v -0.04092500 0.03401700 0.01223700
v -0.05695500 0.03876800 0.04370800
v -0.03201600 0.04055000 0.03598100
v -0.03201600 0.05361200 0.00392200
v -0.05458000 0.03995600 0.00392200
v -0.03676600 0.05598800 0.03539300
v -0.03201600 0.03876800 0.01639600
v -0.05101700 0.03401700 0.00511300
v -0.05873900 0.03461300 0.03123400
v -0.04982900 0.04767300 0.03598100
v -0.03380000 0.05658200 0.00867700
v -0.03261300 0.05420600 0.04370800
v -0.04804800 0.04826700 0.00748500
v -0.04449100 0.03401700 0.03895300
v -0.05754800 0.03580100 0.00748500
v -0.03380000 0.03401700 0.02945000
v -0.05220400 0.04529900 0.04370800
v -0.05873900 0.03401700 0.04370800
v -0.04508200 0.05004900 0.00392200
v -0.04151900 0.05361000 0.04370800
v -0.04151900 0.05301800 0.00808100
v -0.03201600 0.04470800 0.01045700
v -0.04508200 0.03401700 0.00867700
v -0.05517300 0.03995600 0.00748500
v -0.03736300 0.03401700 0.01639600
v -0.05101700 0.04529900 0.00629700
v -0.03201600 0.03579800 0.03064200
v -0.04626700 0.05004900 0.01580400
v -0.05814200 0.03401700 0.00748500
v -0.05398600 0.03401700 0.00392200
v -0.03261300 0.05658200 0.00511300
v -0.05517300 0.04114400 0.03360600
f 29 15 36
f 13 9 37
f 5 13 37
f 15 34 36
f 34 1 36
f 23 29 36
f 27 20 36
f 25 12 34
f 20 23 36
f 26 11 35
f 5 26 35
f 11 17 35
f 17 5 35
f 15 25 34
f 26 5 37
f 14 32 33
f 1 27 36
f 9 26 37
f 28 19 39
f 23 20 38
f 32 11 33
f 12 27 42
f 27 1 42
f 29 10 41
f 1 34 42
f 10 21 41
f 21 3 41
f 2 6 41
f 3 2 41
f 14 18 40
f 18 7 40
f 7 14 40
f 7 28 39
f 19 25 39
f 25 7 39
f 31 23 38
f 8 31 38
f 20 8 38
f 18 14 33
f 6 29 41
f 14 17 32
f 4 9 24
f 13 2 22
f 2 4 22
f 16 3 21
f 11 7 18
f 14 5 17
f 6 7 15
f 7 6 14
f 6 5 14
f 4 8 12
f 9 7 11
f 4 7 9
f 4 3 8
f 2 5 6
f 2 3 4
f 34 12 42
f 11 18 33
f 9 13 24
f 22 4 24
f 5 2 13
f 15 7 25
f 13 22 24
f 17 11 32
f 8 30 31
f 10 23 31
f 16 21 31
f 30 16 31
f 3 16 30
f 8 3 30
f 21 10 31
f 6 15 29
f 12 19 28
f 4 12 28
f 7 4 28
f 8 20 27
f 12 8 27
f 9 11 26
f 23 10 29
f 19 12 25

