# https://github.com/mikedh/trimesh
v -0.05873900 0.03401700 0.07518100
v -0.06170700 0.02154600 0.04193000
v -0.06170700 0.02451700 0.04193000
v -0.05636400 0.03223400 0.04193000
v -0.05992500 0.02154600 0.07518100
v -0.06170700 0.02511100 0.07518100
v -0.05933200 0.03342200 0.04193000
v -0.05636400 0.03401700 0.07518100
v -0.05992500 0.02154600 0.04193000
v -0.05933200 0.02214100 0.07220600
v -0.05636400 0.03401700 0.04193000
v -0.06170700 0.02154600 0.07518100
v -0.06051900 0.03045200 0.05380700
v -0.05992500 0.03164100 0.07220600
v -0.05636400 0.03342200 0.07518100
v -0.05933200 0.02273400 0.04193000
v -0.06111300 0.02807700 0.04252600
f 4 8 15
f 1 7 14
f 13 6 14
f 8 5 15
f 5 10 15
f 7 3 17
f 9 4 16
f 10 9 16
f 4 10 16
f 3 6 17
f 7 13 14
f 6 13 17
f 10 4 15
f 5 6 12
f 6 1 14
f 2 5 12
f 6 2 12
f 13 7 17
f 2 3 4
f 3 2 6
f 4 3 7
f 1 5 8
f 5 1 6
f 5 2 9
f 5 9 10
f 4 7 11
f 7 1 11
f 1 8 11
f 8 4 11
f 2 4 9

