# https://github.com/mikedh/trimesh
v -0.00113500 0.02273400 0.02470200
v 0.02083400 0.02273400 0.01639900
v 0.02083400 0.02214000 0.01639900
v 0.02024000 0.02214000 0.04192700
v 0.01727100 0.03401700 0.04192700
v 0.00717100 0.03401700 0.00629900
v -0.00648100 0.03401700 0.03182600
v 0.01252000 0.02214000 0.00392200
v 0.01608300 0.03401700 0.00392200
v -0.00529200 0.03342300 0.01758200
v 0.00480500 0.02214000 0.03658100
v 0.00658300 0.03342300 0.04014100
v 0.01905100 0.02214000 0.00392200
v 0.00243100 0.02214000 0.01401800
v 0.01786300 0.03223400 0.00986300
v -0.00766900 0.03401700 0.02351200
v 0.01964600 0.02748700 0.04192700
v 0.00005100 0.02214000 0.03004800
v 0.00243100 0.03342300 0.00926800
v -0.00113500 0.03401700 0.03658100
v 0.00540000 0.02214000 0.00986300
v -0.00766900 0.03342300 0.02826600
v 0.01845700 0.02214000 0.04192700
v 0.00005100 0.02214000 0.01936800
v 0.01905100 0.02689100 0.00570400
v 0.01430000 0.03401700 0.04192700
v 0.00658300 0.02985900 0.03954900
v 0.01370800 0.03401700 0.00392200
v -0.00351200 0.03401700 0.01520500
v -0.00648100 0.03342300 0.03182600
v -0.00766900 0.03342300 0.02351200
f 8 6 28
f 23 12 27
f 11 23 27
f 12 20 27
f 20 11 27
f 9 15 25
f 23 5 26
f 20 12 26
f 5 20 26
f 15 2 25
f 6 9 28
f 12 23 26
f 9 8 28
f 22 18 30
f 10 16 29
f 6 19 29
f 21 10 29
f 19 21 29
f 18 11 30
f 20 7 30
f 11 20 30
f 7 22 30
f 13 9 25
f 16 10 31
f 1 22 31
f 22 16 31
f 10 24 31
f 16 6 29
f 2 13 25
f 4 5 23
f 18 1 24
f 24 1 31
f 3 2 4
f 5 6 7
f 3 4 8
f 6 5 9
f 8 4 11
f 2 3 13
f 3 8 13
f 8 9 13
f 14 18 24
f 9 5 15
f 7 6 16
f 4 2 17
f 8 11 14
f 2 15 17
f 10 14 24
f 5 4 17
f 1 18 22
f 7 16 22
f 19 8 21
f 11 4 23
f 14 10 21
f 5 7 20
f 6 8 19
f 14 11 18
f 15 5 17
f 8 14 21

