# https://github.com/mikedh/trimesh
v 0.00075800 -0.09817400 0.01139700
v 0.01265900 -0.08106700 0.00098300
v 0.01265900 -0.08106700 0.00023800
v -0.00965700 -0.08478900 0.00098300
v 0.01042700 -0.09073500 0.01139700
v 0.01265900 -0.08627600 0.00098300
v -0.00965700 -0.08850700 0.00023800
v -0.00965700 -0.09445400 0.01139700
v 0.01265900 -0.09519800 0.01065200
v -0.00965700 -0.09891800 0.01065200
v 0.00373100 -0.08776300 0.00023800
v -0.00891200 -0.09296700 0.01065200
v 0.00893900 -0.09668500 0.01065200
v -0.00519200 -0.09891800 0.01065200
v 0.01265900 -0.09073500 0.01139700
f 4 8 12
f 2 5 15
f 5 1 15
f 13 1 14
f 10 7 14
f 1 10 14
f 11 13 14
f 11 6 13
f 6 9 13
f 9 1 13
f 8 5 12
f 1 9 15
f 7 11 14
f 5 2 12
f 7 3 11
f 2 4 12
f 9 2 15
f 2 3 4
f 4 3 7
f 4 7 8
f 3 2 6
f 6 2 9
f 8 7 10
f 1 8 10
f 3 6 11
f 1 5 8

