# https://github.com/mikedh/trimesh
v 0.01638200 0.11011000 0.01883700
v 0.01638200 0.12796300 0.01957900
v 0.02010100 0.12721900 0.02106700
v 0.04687800 0.11531800 0.01809200
v 0.04687800 0.11011000 0.02255500
v 0.01340300 0.12275600 0.02255500
v 0.01340300 0.11011000 0.01660400
v 0.04687800 0.11680500 0.02255500
v 0.01340300 0.12796300 0.01809200
v 0.03274200 0.12349800 0.01883700
v 0.02233200 0.11011000 0.01660400
v 0.01340300 0.12721900 0.02255500
v 0.04389900 0.11011000 0.01957900
v 0.03497300 0.12200900 0.02255500
v 0.04687800 0.11308800 0.01809200
v 0.01340300 0.11085500 0.01883700
v 0.04464300 0.11011000 0.02255500
f 10 3 14
f 8 10 14
f 3 12 14
f 12 8 14
f 4 5 15
f 11 4 15
f 6 7 16
f 13 11 15
f 7 1 16
f 1 5 17
f 5 6 17
f 16 1 17
f 5 11 13
f 5 13 15
f 9 6 12
f 3 2 12
f 6 8 12
f 6 16 17
f 2 9 12
f 5 4 8
f 6 5 8
f 7 6 9
f 2 3 10
f 5 1 7
f 9 2 10
f 4 9 10
f 5 7 11
f 9 4 11
f 7 9 11
f 8 4 10

