# https://github.com/mikedh/trimesh
v -0.00147500 0.06399000 -0.00348100
v -0.00667400 0.08853800 0.00172600
v -0.00667400 0.08853800 0.00098200
v -0.02676600 0.06399000 -0.00124900
v -0.02676600 0.07737900 -0.00348100
v 0.01712200 0.08109600 0.00172600
v 0.01712200 0.07514900 -0.00348100
v 0.01712200 0.06399000 -0.00124900
v -0.02676600 0.08407300 0.00172600
v -0.01932600 0.08407300 -0.00199300
v 0.00968200 0.08332600 -0.00124900
v -0.02676600 0.06399000 -0.00273700
v 0.01712200 0.06399000 -0.00348100
v -0.00445700 0.08258300 -0.00273700
v -0.02676600 0.08704800 0.00098200
v 0.01712200 0.08407300 0.00098200
v -0.02676600 0.06845400 -0.00348100
v 0.00521800 0.07886400 -0.00348100
f 5 9 15
f 10 5 15
f 3 10 15
f 3 2 16
f 5 14 18
f 2 6 16
f 6 7 16
f 1 12 17
f 7 11 16
f 5 1 17
f 12 5 17
f 7 5 18
f 11 7 18
f 9 2 15
f 11 3 16
f 2 3 15
f 4 5 12
f 10 3 14
f 1 5 7
f 7 6 8
f 4 1 8
f 6 4 8
f 5 4 9
f 6 2 9
f 14 11 18
f 1 4 12
f 4 6 9
f 5 10 14
f 3 11 14
f 7 8 13
f 1 7 13
f 8 1 13

