# https://github.com/mikedh/trimesh
v 0.02828100 0.08184600 0.00395800
v -0.00072600 0.09746400 0.01139700
v 0.00373200 0.09671700 0.01139700
v 0.02753400 0.08481900 0.01139700
v -0.00593800 0.08630900 0.00247000
v 0.00150500 0.08853900 0.00172600
v -0.00519100 0.09225400 0.01065300
v 0.02679000 0.07738000 0.00247000
v 0.02307200 0.09151100 0.01065300
v 0.01489300 0.08556400 0.00172600
v -0.00593800 0.08853900 0.00172600
v 0.01117100 0.09522900 0.01065300
v -0.00593800 0.09671700 0.01139700
v 0.02828100 0.07738000 0.00172600
v 0.02828100 0.08853500 0.01139700
v -0.00072600 0.09746400 0.01065300
v 0.02307200 0.08258900 0.00172600
v 0.02753400 0.08184600 0.00842100
f 3 12 16
f 4 14 15
f 2 3 16
f 6 11 16
f 14 1 15
f 12 6 16
f 14 10 17
f 11 13 16
f 9 1 17
f 10 9 17
f 7 8 18
f 4 7 18
f 1 9 15
f 13 2 16
f 9 3 15
f 14 4 18
f 11 10 14
f 3 4 15
f 8 14 18
f 3 2 4
f 7 5 8
f 6 10 11
f 3 9 12
f 10 6 12
f 1 14 17
f 4 2 13
f 7 4 13
f 5 7 13
f 11 5 13
f 8 5 14
f 9 10 12
f 5 11 14

