# https://github.com/mikedh/trimesh
v -0.02824500 -0.05502700 -0.00050600
v 0.04315800 0.00671100 0.00023800
v 0.04315800 0.00671100 -0.00124900
v 0.04315800 -0.06395800 -0.00199300
v -0.03197400 0.00671100 -0.00124900
v -0.03197400 -0.06395800 -0.00273700
v 0.04315800 -0.06395800 0.00023800
v -0.03122400 -0.00594100 0.00098200
v 0.04315800 -0.04312200 -0.00273700
v 0.03348700 0.00671100 0.00098200
v -0.01114600 -0.02528900 0.00098200
v -0.02675900 0.00671100 0.00098200
v 0.04315800 -0.02156100 0.00098200
v -0.03197400 -0.05130600 -0.00273700
v -0.03197400 -0.06395800 -0.00124900
v 0.04018000 -0.06395800 -0.00273700
v -0.03197400 -0.04014800 0.00023800
v 0.02753000 -0.02751000 0.00098200
v -0.03197400 0.00671100 0.00023800
v 0.04240800 0.00075500 0.00098200
v 0.04092300 -0.06395800 0.00023800
f 8 12 19
f 12 5 19
f 11 8 17
f 15 1 17
f 5 15 17
f 5 17 19
f 13 11 18
f 17 8 19
f 1 15 21
f 13 2 20
f 10 13 20
f 15 7 21
f 17 1 21
f 11 17 21
f 7 18 21
f 6 9 16
f 2 10 20
f 9 4 16
f 7 13 18
f 6 7 15
f 18 11 21
f 3 2 4
f 2 3 5
f 4 2 7
f 3 4 9
f 5 3 9
f 2 5 10
f 10 8 11
f 6 4 7
f 8 10 12
f 7 2 13
f 10 11 13
f 4 6 16
f 6 5 14
f 5 9 14
f 9 6 14
f 5 6 15
f 10 5 12

