# https://github.com/mikedh/trimesh
v 0.06992900 -0.03494600 0.00172600
v 0.04315800 -0.06395800 -0.00199300
v 0.04315800 -0.06395800 0.00098200
v 0.04315800 0.00671100 0.00023800
v 0.06919200 0.00671100 -0.00273700
v 0.07663300 0.00671100 0.00172600
v 0.04613700 0.00671100 -0.00199300
v 0.06695400 -0.02898300 -0.00199300
v 0.04464900 -0.06395800 0.00172600
v 0.04315800 -0.06023600 -0.00273700
v 0.04315800 -0.00296700 0.00098200
v 0.05952500 -0.05354000 0.00098200
v 0.07439800 -0.01115000 -0.00050500
v 0.05654400 -0.04535700 -0.00273700
v 0.05803800 0.00671100 -0.00273700
v 0.04315800 -0.04312900 -0.00273700
v 0.04985600 -0.06395800 0.00172600
v 0.06919200 -0.03494600 0.00023800
v 0.07588300 -0.01337700 0.00172600
v 0.07290700 0.00671100 0.00172600
v 0.04315800 0.00671100 -0.00124900
v 0.06844100 -0.00966300 -0.00273700
v 0.05581000 -0.05354000 -0.00124900
v 0.07365400 0.00596400 -0.00124900
v 0.06175000 -0.04461700 -0.00124900
v 0.04911200 -0.06395800 0.00023800
v 0.07067900 -0.01635200 -0.00199300
v 0.07290700 -0.02378800 0.00023800
f 23 14 25
f 8 18 25
f 18 12 25
f 14 8 25
f 6 13 24
f 8 14 22
f 2 14 23
f 14 5 22
f 7 16 21
f 12 23 25
f 5 6 24
f 17 2 26
f 1 18 28
f 2 23 26
f 23 12 26
f 22 5 27
f 8 22 27
f 5 24 27
f 24 13 27
f 18 8 28
f 19 1 28
f 13 19 28
f 27 13 28
f 16 4 21
f 12 17 26
f 4 7 21
f 8 27 28
f 4 11 20
f 2 3 4
f 5 4 6
f 4 5 7
f 3 2 9
f 1 6 9
f 2 4 10
f 4 3 11
f 3 9 11
f 2 10 14
f 10 5 14
f 7 5 15
f 11 9 20
f 15 10 16
f 9 6 20
f 6 4 20
f 13 6 19
f 6 1 19
f 1 12 18
f 5 10 15
f 1 9 17
f 9 2 17
f 7 15 16
f 10 4 16
f 12 1 17

