# https://github.com/mikedh/trimesh
v 0.06398100 0.04316100 -0.00050600
v 0.03646300 0.00671100 -0.00125000
v 0.04539400 0.00671100 -0.00199300
v 0.03646300 0.06324400 -0.00348100
v 0.04167700 0.06399000 0.00023800
v 0.07440100 0.00671100 0.00023800
v 0.06919100 0.00671100 -0.00273700
v 0.03646300 0.00671100 0.00023800
v 0.06472700 0.03051700 -0.00273700
v 0.05357900 0.05803000 0.00023800
v 0.03646300 0.05134100 -0.00348100
v 0.03721000 0.06399000 -0.00050600
v 0.04911200 0.05059500 -0.00348100
v 0.07291200 0.02010500 -0.00050600
v 0.04613700 0.06399000 -0.00125000
v 0.05803600 0.00671100 -0.00273700
v 0.05209000 0.05282700 -0.00273700
v 0.06919100 0.03200900 0.00023800
v 0.03646300 0.01415100 -0.00199300
v 0.05282900 0.03869200 -0.00348100
f 13 4 17
f 14 1 18
f 15 1 17
f 4 15 17
f 9 13 17
f 1 10 18
f 10 6 18
f 9 7 20
f 3 2 19
f 2 11 19
f 16 3 19
f 11 16 19
f 13 9 20
f 11 13 20
f 1 9 17
f 7 16 20
f 6 14 18
f 7 3 16
f 4 8 12
f 4 12 15
f 16 11 20
f 2 3 6
f 12 5 15
f 4 2 8
f 2 6 8
f 6 5 8
f 5 6 10
f 6 3 7
f 8 5 12
f 11 4 13
f 6 7 14
f 9 1 14
f 7 9 14
f 10 1 15
f 5 10 15
f 2 4 11

