# https://github.com/mikedh/trimesh
v -0.03941200 -0.09147800 0.01139800
v -0.07809400 -0.10784700 0.01957800
v -0.07734500 -0.10337600 0.01809000
v -0.07734500 -0.06767700 0.01214200
v -0.07437200 -0.10710000 0.02181000
v -0.03941200 -0.10560900 0.01660400
v -0.05132100 -0.09370700 0.01139800
v -0.07809400 -0.07586400 0.01139800
v -0.04015800 -0.10784700 0.01437300
v -0.07809400 -0.10784700 0.02181000
v -0.04015800 -0.09073400 0.01214200
v -0.06321000 -0.09891300 0.01437300
v -0.07809400 -0.06767700 0.01139800
v -0.06767800 -0.08478900 0.01139800
v -0.03941200 -0.10784700 0.01660400
v -0.03941200 -0.09743100 0.01139800
v -0.05652700 -0.10710000 0.01586100
f 12 3 14
f 7 12 14
f 6 5 15
f 1 6 15
f 5 10 15
f 10 9 15
f 15 9 16
f 9 7 16
f 1 15 16
f 9 2 17
f 7 9 17
f 2 12 17
f 8 7 14
f 7 1 16
f 3 8 14
f 1 8 13
f 10 4 13
f 12 7 17
f 8 10 13
f 3 2 8
f 1 7 8
f 5 4 10
f 8 2 10
f 4 5 6
f 1 4 11
f 6 1 11
f 4 6 11
f 2 3 12
f 4 1 13
f 2 9 10

