# https://github.com/mikedh/trimesh
v 0.03571400 0.01489700 -0.00199300
v 0.03646300 0.06399000 -0.00124900
v 0.01042500 0.03720100 0.00023800
v -0.02676600 0.06399000 -0.00273700
v -0.02676600 0.00671100 0.00023800
v 0.03274400 0.00671100 0.00098200
v -0.02676600 0.06324400 -0.00050600
v 0.03646300 0.06399000 -0.00348100
v -0.02676600 0.00671100 -0.00124900
v -0.01709300 0.01787400 0.00098200
v 0.00075700 0.06324400 -0.00348100
v 0.03646300 0.00671100 -0.00124900
v 0.03646300 0.05134100 -0.00348100
v -0.02527500 0.00671100 0.00098200
v -0.02676600 0.05282700 -0.00273700
v 0.03646300 0.02307700 0.00023800
v -0.00891000 0.02010500 0.00098200
v -0.02676600 0.04316100 0.00023800
v 0.02009300 0.01415100 0.00098200
v -0.00296200 0.04092300 0.00023800
v 0.03497200 0.03200900 -0.00273700
f 6 2 19
f 10 6 17
f 10 17 18
f 7 5 18
f 5 14 18
f 14 10 18
f 2 3 19
f 17 6 19
f 19 3 20
f 3 2 20
f 2 7 20
f 18 17 20
f 7 18 20
f 6 12 16
f 1 9 21
f 13 1 21
f 17 19 20
f 2 6 16
f 12 2 16
f 4 11 15
f 9 13 21
f 11 9 15
f 4 5 7
f 4 2 8
f 5 4 9
f 6 5 9
f 4 8 11
f 8 2 12
f 6 9 12
f 2 4 7
f 11 8 13
f 9 11 13
f 8 12 13
f 12 1 13
f 5 6 14
f 6 10 14
f 9 4 15
f 9 1 12

