# https://github.com/mikedh/trimesh
v -0.08999400 -0.02601900 -0.00273700
v -0.03197400 0.00671100 0.00023800
v -0.08180900 -0.04535400 0.00098200
v -0.03197400 -0.04684800 -0.00199300
v -0.09817200 0.00671100 0.00098200
v -0.06396500 0.00671100 -0.00273700
v -0.03197400 -0.04015400 0.00023800
v -0.07957400 -0.04684800 -0.00273700
v -0.09296200 0.00671100 -0.00273700
v -0.03197400 0.00671100 -0.00124900
v -0.09594400 -0.02453000 0.00023800
v -0.08627100 -0.04684800 0.00098200
v -0.05875600 -0.04684800 -0.00273700
v -0.03197400 -0.04684800 -0.00050600
v -0.09668400 -0.00816800 -0.00124900
v -0.04239300 0.00671100 -0.00199300
v -0.08850600 -0.03865900 -0.00124900
v -0.09817200 -0.01337900 0.00098200
v -0.03197400 -0.03493700 -0.00199300
v -0.09817200 0.00373300 -0.00050600
v -0.09519700 0.00671100 0.00098200
f 11 1 17
f 10 4 19
f 8 12 17
f 12 11 17
f 12 5 18
f 11 12 18
f 15 11 18
f 4 13 19
f 5 3 21
f 16 10 19
f 5 9 20
f 9 15 20
f 18 5 20
f 15 18 20
f 3 2 21
f 1 8 17
f 13 6 19
f 6 10 16
f 6 16 19
f 9 1 15
f 2 5 21
f 5 2 6
f 2 3 7
f 4 2 7
f 1 6 8
f 5 6 9
f 6 1 9
f 2 4 10
f 1 11 15
f 3 5 12
f 6 2 10
f 7 12 14
f 4 7 14
f 8 6 13
f 12 4 14
f 8 4 12
f 7 3 12
f 4 8 13

