# Blender 4.4.3
# www.blender.org
mtllib hammer2.mtl
o textured_reoriented.004_hull_2
v 0.038468 0.025957 0.018729
v 0.027139 -0.055806 0.009081
v 0.039220 0.031840 0.006028
v 0.014758 0.103308 0.004370
v 0.028173 0.103302 0.025636
v 0.027376 0.103301 -0.001000
v 0.044303 0.103114 0.003774
v 0.013994 0.103301 0.017533
v 0.006051 0.017323 0.021123
v 0.046430 0.098661 0.013414
v 0.042310 0.103301 0.022680
v 0.024752 0.015388 -0.001648
v -0.001455 -0.056299 0.008269
v -0.000757 -0.056303 0.017487
v 0.004212 0.025540 0.008269
v 0.029996 0.044384 0.026016
v 0.023256 -0.056314 0.020108
v 0.011421 -0.056299 0.022167
v 0.009427 0.037341 0.001014
v 0.008362 -0.056318 0.001089
vn 0.9906 -0.1367 -0.0047
vn -0.2348 0.7999 -0.5522
vn 0.1096 0.8438 0.5253
vn -0.1732 0.8913 -0.4191
vn 0.0071 1.0000 -0.0033
vn -0.0004 1.0000 0.0005
vn -0.4945 0.0818 0.8653
vn 0.8200 0.5667 0.0808
vn 0.1225 0.8178 0.5624
vn 0.5570 -0.1055 -0.8238
vn -0.9948 0.0689 0.0754
vn -0.9897 0.1313 -0.0574
vn -0.2003 0.0001 0.9797
vn -0.2002 -0.0001 0.9798
vn -0.1998 -0.0005 0.9798
vn 0.1709 -0.0691 0.9829
vn -0.1995 -0.0007 0.9799
vn -0.1546 0.0119 -0.9879
vn -0.1696 0.0011 -0.9855
vn -0.0010 -1.0000 0.0007
vn -0.3327 -0.8274 -0.4526
vn -0.3470 -0.7985 -0.4919
vn 0.0191 -0.9997 -0.0136
vn 0.0407 -0.9987 -0.0317
vn 0.3915 -0.1243 -0.9118
vn -0.9781 0.0810 0.1917
vn -0.9744 0.0985 0.2023
vn 0.2714 -0.0010 -0.9625
vn 0.5237 -0.0642 -0.8495
vn -0.3904 0.0782 -0.9173
vn -0.0008 -1.0000 0.0029
vn -0.3587 -0.0129 0.9334
vn 0.5368 -0.0852 0.8394
vn 0.5587 -0.0700 0.8264
vn 0.8989 -0.0668 0.4331
vn 0.9324 -0.1670 0.3206
vn -0.5903 0.0061 -0.8071
vn -0.8537 0.0591 -0.5175
vn -0.8750 0.0949 -0.4747
vn 0.2047 0.0126 0.9788
vn 0.9656 -0.0767 -0.2485
vn 0.9941 -0.1082 0.0087
vt 0.523067 0.830726
vt 0.002561 0.571885
vt 0.557783 0.847641
vt 1.000000 0.352222
vt 0.999962 0.619700
vt 1.000000 0.602088
vt 0.998066 0.946449
vt 1.000000 0.322627
vt 0.494914 0.134717
vt 0.970930 1.000000
vt 1.000000 0.913961
vt 0.495682 0.497348
vt 0.000094 0.000000
vt 0.000094 0.027856
vt 0.512821 0.118346
vt 0.627043 0.677585
vt 0.000094 0.268894
vt 0.000000 0.516049
vt 0.585414 0.245956
vt 0.000062 0.206335
s 1
usemtl None.009
f 1/1/1 2/2/1 3/3/1
f 4/4/2 5/5/3 6/6/4
f 6/6/4 5/5/3 7/7/5
f 5/5/3 4/4/2 8/8/6
f 9/9/7 5/5/7 8/8/7
f 10/10/8 7/7/8 11/11/8
f 7/7/5 5/5/3 11/11/9
f 2/2/10 12/12/10 3/3/10
f 13/13/11 14/14/11 15/15/11
f 8/8/12 4/4/12 15/15/12
f 5/5/13 9/9/14 16/16/15
f 18/17/16 17/18/16 16/16/16
f 9/9/14 18/17/17 16/16/15
f 19/19/18 6/6/18 12/12/18
f 20/20/19 19/19/19 12/12/19
f 14/14/20 13/13/21 20/20/22
f 17/18/23 14/14/20 20/20/22
f 2/2/24 17/18/23 20/20/22
f 12/12/25 2/2/25 20/20/25
f 15/15/26 14/14/26 9/9/26
f 8/8/27 15/15/27 9/9/27
f 12/12/28 6/6/28 7/7/28
f 3/3/29 12/12/29 7/7/29
f 6/6/4 19/19/30 4/4/2
f 17/18/23 18/17/31 14/14/20
f 18/17/32 9/9/32 14/14/32
f 16/16/33 17/18/33 1/1/33
f 11/11/34 16/16/34 1/1/34
f 10/10/35 11/11/35 1/1/35
f 1/1/36 17/18/36 2/2/36
f 20/20/22 13/13/21 19/19/37
f 13/13/38 15/15/38 19/19/38
f 15/15/39 4/4/39 19/19/39
f 16/16/40 11/11/9 5/5/3
f 7/7/41 10/10/41 3/3/41
f 10/10/42 1/1/42 3/3/42
