# Blender 4.4.3
# www.blender.org
mtllib hammer5.mtl
o textured_reoriented.004_hull_5
v -0.058707 -0.107212 0.030374
v -0.039560 -0.129900 0.027586
v -0.058466 -0.106453 0.019133
v -0.039507 -0.133175 0.014194
v -0.062121 -0.110170 0.030235
v -0.039588 -0.146669 0.026011
v -0.062965 -0.106713 0.018183
v -0.042015 -0.145326 0.012894
vn 0.7665 0.6395 0.0596
vn 0.1803 0.3010 -0.9364
vn 0.7229 0.2136 -0.6571
vn 0.7536 0.2003 0.6261
vn 0.9623 -0.1163 0.2459
vn -0.8808 -0.4679 -0.0725
vn 0.8200 -0.1091 -0.5619
vn -0.0397 0.1144 -0.9926
vn 0.0350 -0.0935 0.9950
vn -0.8413 -0.5311 0.1013
vn -0.0714 0.9953 0.0657
vn -0.6394 0.7261 0.2530
vn 0.0378 -0.0904 0.9952
vn 0.7949 0.5901 -0.1412
vt 0.973740 0.163878
vt 0.959346 0.169583
vt 0.402227 0.999984
vt 0.300267 0.999069
vt 0.947530 0.022348
vt 0.004326 1.004879
vt 0.886754 0.062732
vt 0.041425 0.930276
s 1
usemtl None.009
f 3/1/1 1/2/1 2/3/1
f 3/1/2 4/4/2 7/5/2
f 4/4/3 2/3/4 6/6/5
f 5/7/6 7/5/6 8/8/6
f 6/6/5 8/8/7 4/4/3
f 7/5/8 4/4/3 8/8/7
f 5/7/9 6/6/5 2/3/4
f 6/6/10 5/7/10 8/8/10
f 3/1/11 7/5/11 1/2/11
f 7/5/12 5/7/12 1/2/12
f 5/7/13 2/3/13 1/2/13
f 4/4/3 3/1/14 2/3/4
