# Blender 4.4.3
# www.blender.org
mtllib hammer6.mtl
o textured_reoriented.004_hull_6
v -0.039256 -0.130243 0.027233
v -0.015876 -0.154653 0.025768
v -0.015873 -0.143097 0.024835
v -0.016018 -0.166242 0.000030
v -0.015875 -0.143595 -0.000451
v -0.015910 -0.165247 0.023111
v -0.039216 -0.129670 -0.001440
v -0.024338 -0.162229 0.022827
v -0.039524 -0.147005 0.026018
v -0.031778 -0.156460 0.002756
v -0.039480 -0.146339 -0.000749
vn 0.1449 0.0796 0.9862
vn 0.9695 0.0195 0.2444
vn 0.7306 0.2663 0.6287
vn 0.9381 -0.0133 -0.3462
vn 0.7005 0.3751 -0.6072
vn 1.0000 -0.0036 -0.0027
vn -0.4785 -0.5895 -0.6508
vn 0.4831 0.8754 0.0182
vn -0.0682 -0.2425 0.9678
vn -0.1563 -0.3495 0.9238
vn -0.9999 0.0159 -0.0012
vn -0.9999 0.0158 -0.0013
vn -0.6610 -0.0438 0.7491
vn -0.7929 -0.6091 -0.0165
vn -0.6070 -0.7947 -0.0034
vn -0.6397 -0.7684 0.0163
vn -0.7011 -0.7109 0.0555
vn -0.8916 -0.0185 0.4523
vn -0.3381 -0.9402 0.0421
vn -0.5325 -0.8452 -0.0456
vn -0.0128 -0.0721 0.9973
vn 0.4441 0.7116 -0.5445
vn -0.0019 -0.0414 -0.9991
vt 0.963603 0.978871
vt 0.309990 0.946244
vt 0.615930 0.908010
vt 0.009362 0.068431
vt 0.609547 0.050010
vt 0.021257 0.842441
vt 0.270460 0.125095
vt 0.534774 0.035692
vt 0.973627 0.041053
vt 0.524389 0.923298
vt 0.125788 0.812822
s 1
usemtl None.009
f 1/1/1 2/2/2 3/3/3
f 4/4/4 5/5/5 6/6/6
f 6/6/6 5/5/5 3/3/3
f 6/6/6 3/3/3 2/2/2
f 10/7/7 11/8/7 4/4/7
f 3/3/8 7/9/8 1/1/8
f 2/2/9 9/10/9 6/6/9
f 9/10/10 8/11/10 6/6/10
f 7/9/11 11/8/12 9/10/13
f 11/8/14 10/7/14 9/10/14
f 10/7/15 8/11/16 9/10/17
f 7/9/11 9/10/13 1/1/18
f 4/4/19 6/6/19 8/11/19
f 10/7/15 4/4/20 8/11/16
f 9/10/13 2/2/21 1/1/18
f 3/3/3 5/5/5 7/9/22
f 5/5/5 4/4/4 7/9/22
f 4/4/23 11/8/23 7/9/23
