# Blender 4.4.3
# www.blender.org
mtllib hammer1.mtl
o textured_reoriented.004_hull_1
v 0.019553 -0.118414 0.003339
v 0.021572 -0.117969 0.019738
v 0.024791 -0.056204 0.019248
v 0.010382 -0.056307 0.001085
v 0.001407 -0.056182 0.020730
v -0.009341 -0.103524 0.012681
v -0.007417 -0.116932 0.001474
v -0.007910 -0.118432 0.020820
v 0.025904 -0.056631 0.007353
v -0.001624 -0.056624 0.007730
v 0.008160 -0.098063 0.024397
vn 0.0467 0.8473 0.5290
vn 0.1921 0.8465 -0.4965
vn 0.0273 0.8041 0.5939
vn -0.9929 -0.1139 -0.0341
vn 0.2514 0.7730 -0.5825
vn 0.3747 0.0217 -0.9269
vn 0.0675 -0.0262 -0.9974
vn 0.0630 0.0971 0.9933
vn 0.0391 -0.2027 0.9785
vn 0.3162 -0.0090 0.9486
vn -0.2667 0.0413 0.9629
vn -0.0400 0.9989 -0.0246
vn -0.9432 0.1226 -0.3086
vn -0.4825 0.1361 -0.8653
vn -0.0262 -0.9988 -0.0422
vn -0.0493 -0.9957 -0.0785
vn -0.0072 -0.9999 -0.0124
vn -0.9592 0.1808 0.2175
vn -0.9031 0.1358 0.4074
vn 0.9942 -0.0511 0.0949
vn 0.9884 -0.0939 -0.1191
vn 0.0166 -0.9995 0.0251
vt 1.000000 0.937010
vt 1.000000 0.550200
vt 1.000000 0.333363
vt 0.002948 0.043549
vt 0.223353 0.007333
vt 0.029092 0.060224
vt 0.992876 0.975071
vt 0.006814 0.794419
vt 0.274265 0.477848
vt 0.019841 0.832558
vt 0.994892 0.223093
s 1
usemtl None.009
f 3/1/1 4/2/2 5/3/3
f 8/4/4 6/5/4 7/6/4
f 4/2/2 3/1/1 9/7/5
f 9/7/5 1/8/6 4/2/2
f 1/8/7 7/6/7 4/2/7
f 11/9/8 3/1/1 5/3/3
f 11/9/9 8/4/9 2/10/9
f 3/1/10 11/9/10 2/10/10
f 11/9/11 5/3/11 8/4/11
f 5/3/3 4/2/2 10/11/12
f 7/6/13 6/5/13 10/11/13
f 4/2/14 7/6/14 10/11/14
f 8/4/15 7/6/16 1/8/17
f 5/3/18 10/11/18 6/5/18
f 8/4/19 5/3/19 6/5/19
f 9/7/20 3/1/20 2/10/20
f 9/7/21 2/10/21 1/8/21
f 8/4/15 1/8/17 2/10/22
