# Blender 4.4.3
# www.blender.org
mtllib hammer9.mtl
o textured_reoriented.004_hull_9
v 0.049815 -0.143758 0.020391
v 0.039635 -0.148111 0.004696
v 0.039666 -0.149070 0.020533
v 0.039601 -0.166554 0.003793
v 0.039632 -0.165738 0.021260
v 0.049507 -0.159316 0.028422
v 0.060845 -0.155690 0.027830
v 0.062620 -0.168469 0.024741
v 0.065307 -0.146660 0.020902
v 0.064676 -0.144752 0.004383
v 0.049521 -0.143847 0.005695
v 0.047846 -0.171934 0.004307
v 0.058786 -0.174223 0.014959
v 0.045398 -0.170915 0.020401
v 0.050102 -0.157103 -0.003799
v 0.063798 -0.170656 0.002432
v 0.063994 -0.158204 -0.002233
vn -0.4624 0.8850 0.0545
vn -0.9330 0.2322 -0.2750
vn -0.8682 0.4952 0.0317
vn -0.9467 -0.1153 -0.3008
vn -0.9213 -0.3884 0.0199
vn -0.1003 0.4579 0.8833
vn 0.8470 -0.0108 0.5314
vn -0.2237 0.4506 0.8643
vn -0.3962 0.9181 0.0024
vn 0.0590 0.9982 -0.0072
vn -0.0357 0.5809 -0.8132
vn 0.7366 -0.6683 0.1044
vn 0.9918 -0.1111 0.0633
vn 0.9987 -0.0302 -0.0416
vn 0.9987 -0.0306 -0.0414
vn 0.9987 -0.0305 -0.0414
vn 0.9987 -0.0311 -0.0411
vn -0.2976 -0.4694 0.8313
vn -0.6020 0.0360 0.7977
vn -0.0657 -0.4709 -0.8798
vn -0.2324 -0.4390 -0.8679
vn -0.1643 0.5696 -0.8053
vn -0.6088 0.0399 -0.7923
vn -0.5449 -0.8380 -0.0298
vn -0.2296 -0.9729 0.0267
vn 0.0473 -0.9655 -0.2560
vn 0.1348 0.4318 -0.8918
vn 0.0774 -0.3508 -0.9332
vn 0.0821 0.5808 0.8099
vn 0.1797 0.9780 0.1061
vn -0.0059 -0.8609 0.5087
vn 0.1201 -0.2175 0.9686
vn -0.1355 -0.5306 0.8367
vn -0.6647 -0.7463 0.0360
vt 0.936571 0.738043
vt 0.787274 0.292668
vt 0.778939 0.741322
vt 0.269302 0.249735
vt 0.301419 0.760822
vt 0.475777 1.000000
vt 0.590148 1.000000
vt 0.189196 0.891439
vt 0.861072 0.779847
vt 0.967265 0.283286
vt 0.879551 0.268587
vt 0.547533 0.028923
vt 0.000000 0.583247
vt 0.139481 0.196761
vt 0.496936 0.046527
vt 0.123228 0.750342
vt 0.086954 0.247620
s 1
usemtl None.009
f 1/1/1 2/2/2 3/3/3
f 2/2/2 4/4/4 5/5/5
f 6/6/6 7/7/6 1/1/6
f 7/7/7 8/8/7 9/9/7
f 2/2/2 5/5/5 3/3/3
f 6/6/8 1/1/8 3/3/8
f 11/10/9 2/2/9 1/1/9
f 10/11/10 11/10/10 1/1/10
f 11/10/11 10/11/11 15/12/11
f 8/8/12 13/13/12 16/14/12
f 9/9/13 8/8/13 16/14/13
f 10/11/14 9/9/15 17/15/16
f 9/9/15 16/14/17 17/15/16
f 5/5/18 14/16/18 6/6/18
f 3/3/19 5/5/19 6/6/19
f 16/14/20 12/17/20 15/12/20
f 12/17/21 4/4/21 15/12/21
f 11/10/22 15/12/22 2/2/22
f 15/12/23 4/4/4 2/2/2
f 14/16/24 4/4/24 12/17/24
f 13/13/25 14/16/25 12/17/25
f 16/14/26 13/13/26 12/17/26
f 15/12/27 10/11/27 17/15/27
f 16/14/28 15/12/28 17/15/28
f 1/1/29 7/7/29 9/9/29
f 10/11/30 1/1/30 9/9/30
f 14/16/31 13/13/31 8/8/31
f 7/7/32 6/6/32 8/8/32
f 6/6/33 14/16/33 8/8/33
f 4/4/4 14/16/34 5/5/5
