# Blender 4.4.3
# www.blender.org
mtllib hammer4.mtl
o textured_reoriented.004_hull_4
v -0.060321 -0.105510 0.010113
v -0.039744 -0.128631 0.007494
v -0.061227 -0.105778 -0.002718
v -0.039832 -0.146757 0.000146
v -0.039686 -0.144682 0.013639
v -0.039557 -0.130232 -0.001307
v -0.063272 -0.108764 0.010454
v -0.053463 -0.126353 -0.001000
vn 0.7416 0.6675 -0.0663
vn 0.9485 -0.0322 -0.3151
vn 0.9999 -0.0085 0.0091
vn 0.9999 -0.0005 -0.0107
vn 0.5565 -0.0820 -0.8268
vn 0.7474 0.6563 -0.1035
vn 0.4630 0.3184 0.8272
vn -0.8361 -0.5408 0.0922
vn -0.6652 -0.4399 -0.6033
vn -0.8007 -0.5484 -0.2411
vn -0.9036 -0.4000 -0.1532
vn 0.0103 0.0950 0.9954
vn -0.7382 0.6735 0.0381
vn -0.0930 -0.1176 -0.9887
vn -0.0333 -0.0870 -0.9957
vn -0.9059 -0.3604 -0.2223
vt 1.000000 0.120482
vt 0.441525 0.981079
vt 0.964057 0.086011
vt 0.009797 0.980921
vt 0.052386 0.993137
vt 0.397003 1.000000
vt 0.913402 0.051539
vt 0.483473 0.430842
s 1
usemtl None.009
f 1/1/1 2/2/1 3/3/1
f 4/4/2 2/2/3 5/5/4
f 2/2/3 4/4/2 6/6/5
f 3/3/6 2/2/6 6/6/6
f 1/1/7 5/5/7 2/2/7
f 4/4/8 5/5/8 7/7/8
f 8/8/9 4/4/10 7/7/11
f 1/1/12 7/7/12 5/5/12
f 7/7/13 1/1/13 3/3/13
f 4/4/10 8/8/9 3/3/14
f 6/6/5 4/4/2 3/3/15
f 7/7/11 3/3/16 8/8/9
