# Blender 4.4.3
# www.blender.org
mtllib hammer3.mtl
o textured_reoriented.004_hull_3
v 0.051035 0.156134 0.003267
v 0.014301 0.103118 0.004559
v 0.044488 0.103370 0.021512
v 0.018629 0.103301 0.022679
v 0.030081 0.103301 -0.001300
v 0.045180 0.103539 0.004586
v 0.031896 0.103397 0.025467
v 0.051488 0.150715 0.021131
v 0.050030 0.157875 0.018046
v 0.016721 0.159502 0.009659
v 0.031499 0.159413 -0.000482
v 0.019704 0.155695 0.001109
v 0.027650 0.158881 0.025810
v 0.045142 0.155572 0.026838
v 0.018820 0.157029 0.022190
v 0.013994 0.105371 0.017017
v 0.036024 0.155456 -0.003517
vn -0.2181 -0.7700 -0.5996
vn 0.0101 -0.9999 0.0013
vn 0.0032 -0.9999 0.0112
vn 0.0223 -0.6926 -0.7210
vn 0.2189 -0.8220 -0.5257
vn 0.0036 -0.9998 0.0182
vn 0.9885 -0.1458 0.0390
vn 0.7957 -0.1035 -0.5968
vn 0.9920 -0.1119 -0.0591
vn 0.8429 -0.1071 -0.5273
vn 0.9755 0.2162 0.0409
vn -0.3221 0.8180 -0.4766
vn -0.3477 -0.0258 -0.9373
vn -0.2898 0.9286 0.2318
vn 0.1566 0.9306 0.3308
vn 0.0546 0.9981 0.0282
vn 0.0221 0.9995 0.0235
vn -0.5387 -0.8313 0.1371
vn 0.7622 0.3808 0.5235
vn 0.6286 -0.0867 0.7728
vn -0.9313 0.0723 -0.3571
vn -0.9984 0.0458 -0.0329
vn -0.9811 0.0737 0.1789
vn -0.3811 0.0098 0.9245
vn -0.7722 0.0085 0.6353
vn -0.2728 -0.0098 -0.9620
vn -0.2448 0.3982 -0.8841
vn 0.2979 -0.1006 0.9493
vn 0.3631 -0.0808 -0.9282
vn 0.4134 -0.0688 -0.9079
vn -0.2055 -0.0218 0.9784
vn -0.0607 -0.0108 0.9981
vn 0.1838 0.9776 -0.1027
vn 0.2439 0.7502 -0.6146
vt 0.000000 0.051125
vt 0.004985 0.782086
vt 0.000000 0.133333
vt 0.000039 0.429036
vt 0.004836 0.795889
vt 0.003377 0.477222
vt 0.840055 0.965811
vt 0.919923 0.956785
vt 0.963745 0.946620
vt 0.986339 0.094620
vt 0.990905 0.466667
vt 0.926893 0.177592
vt 0.945961 0.150734
vt 0.970920 0.375085
vt 0.919674 0.820359
vt 0.036555 0.013287
vt 0.921326 0.581486
s 1
usemtl None.009
f 2/1/1 3/2/2 4/3/3
f 3/2/2 2/1/1 5/4/4
f 6/5/5 3/2/2 5/4/4
f 4/3/3 3/2/2 7/6/6
f 8/7/7 3/2/7 6/5/7
f 1/8/8 8/7/9 6/5/10
f 8/7/11 1/8/11 9/9/11
f 10/10/12 11/11/12 12/12/12
f 12/12/13 5/4/4 2/1/1
f 10/10/14 15/13/14 13/14/14
f 14/15/15 9/9/15 13/14/15
f 9/9/16 11/11/16 13/14/16
f 11/11/17 10/10/17 13/14/17
f 2/1/18 4/3/18 16/16/18
f 9/9/19 14/15/19 8/7/19
f 14/15/20 3/2/20 8/7/20
f 12/12/21 2/1/21 10/10/21
f 2/1/22 16/16/22 10/10/22
f 16/16/23 15/13/23 10/10/23
f 4/3/24 13/14/24 15/13/24
f 16/16/25 4/3/25 15/13/25
f 5/4/26 12/12/26 17/17/26
f 12/12/27 11/11/27 17/17/27
f 7/6/28 3/2/28 14/15/28
f 17/17/29 6/5/5 5/4/4
f 6/5/10 17/17/30 1/8/8
f 13/14/31 4/3/31 7/6/31
f 14/15/32 13/14/32 7/6/32
f 11/11/33 9/9/33 1/8/33
f 17/17/34 11/11/34 1/8/34
