# Blender 4.4.3
# www.blender.org
mtllib hammer8.mtl
o textured_reoriented.004_hull_8
v -0.009731 -0.118890 0.005480
v -0.016203 -0.148262 0.025834
v -0.009495 -0.119805 0.021406
v -0.015778 -0.166570 0.000720
v -0.015871 -0.165980 0.022167
v 0.019449 -0.118671 0.021299
v 0.018599 -0.118799 0.003147
v -0.015871 -0.146415 -0.001000
v 0.028421 -0.158575 0.024905
v 0.028919 -0.161350 0.000031
v 0.016050 -0.171649 0.000546
v 0.019553 -0.157928 -0.002097
v 0.016503 -0.171881 0.023405
v 0.029178 -0.168477 0.009339
v 0.028923 -0.145387 0.019077
v 0.028896 -0.146720 0.001301
v -0.004028 -0.123770 0.001575
vn -0.9720 0.2334 0.0278
vn -0.9999 -0.0102 -0.0095
vn -0.9998 -0.0179 -0.0038
vn -0.9999 -0.0120 -0.0082
vn -0.0038 1.0000 -0.0069
vn -0.9999 -0.0057 -0.0128
vn -0.0389 0.9976 0.0579
vn 0.1385 -0.2213 -0.9653
vn 0.2441 -0.9696 -0.0147
vn 0.6474 -0.6284 0.4313
vn -0.0024 0.1543 0.9880
vn 0.7797 0.2280 0.5831
vn 0.9922 0.1235 -0.0147
vn 0.9415 0.3361 -0.0266
vn 0.9868 0.1622 -0.0006
vn 0.9983 -0.0129 0.0568
vn 1.0000 0.0018 0.0096
vn -0.0585 -0.0852 -0.9947
vn -0.0342 -0.1806 -0.9830
vn 0.9362 0.3483 -0.0463
vn -0.9762 0.2171 0.0029
vn -0.0691 0.5728 -0.8168
vn -0.3600 0.2891 -0.8870
vn -0.1802 -0.9833 0.0263
vn -0.1576 -0.9875 -0.0069
vn 0.2499 0.0841 -0.9646
vn 0.1224 0.1353 -0.9832
vn 0.0710 0.1336 -0.9885
vn 0.1917 0.1350 -0.9721
vn 0.0437 0.0997 0.9941
vn 0.5171 -0.6726 -0.5294
vn 0.9997 0.0037 -0.0250
vn -0.0744 -0.2034 0.9763
vn -0.0043 -0.1082 0.9941
vn 0.0394 0.1337 -0.9902
vn 0.0051 0.1104 -0.9939
vt 0.989346 0.141152
vt 0.463785 0.037267
vt 0.977867 0.151587
vt 0.105742 0.005274
vt 0.106896 0.000000
vt 0.996244 0.787446
vt 0.988688 0.757098
vt 0.475817 0.000000
vt 0.194200 0.999911
vt 0.000000 0.712618
vt 0.285803 0.787132
vt 0.005708 0.721951
vt 0.073475 0.999911
vt 0.252692 0.988911
vt 0.495201 1.000000
vt 0.436316 1.000000
vt 0.902815 0.264388
s 1
usemtl None.009
f 1/1/1 2/2/1 3/3/1
f 4/4/2 5/5/3 2/2/4
f 1/1/5 6/6/5 7/7/5
f 4/4/2 2/2/4 8/8/6
f 6/6/7 1/1/7 3/3/7
f 10/9/8 11/10/8 12/11/8
f 13/12/9 11/10/9 14/13/9
f 9/14/10 13/12/10 14/13/10
f 3/3/11 2/2/11 6/6/11
f 6/6/12 9/14/12 15/15/12
f 16/16/13 6/6/14 15/15/15
f 9/14/16 14/13/17 15/15/15
f 4/4/18 8/8/18 12/11/18
f 11/10/19 4/4/19 12/11/19
f 6/6/20 16/16/20 7/7/20
f 8/8/21 2/2/21 1/1/21
f 7/7/22 17/17/22 1/1/22
f 17/17/23 8/8/23 1/1/23
f 13/12/24 5/5/24 4/4/24
f 11/10/25 13/12/25 4/4/25
f 10/9/26 12/11/26 16/16/26
f 15/15/15 14/13/17 16/16/13
f 12/11/27 7/7/28 16/16/29
f 9/14/30 6/6/30 2/2/30
f 11/10/31 10/9/31 14/13/31
f 10/9/32 16/16/13 14/13/17
f 2/2/33 5/5/33 13/12/33
f 9/14/34 2/2/34 13/12/34
f 17/17/35 7/7/28 12/11/27
f 8/8/36 17/17/36 12/11/36
