# Blender 4.4.3
# www.blender.org
mtllib hammer7.mtl
o textured_reoriented.004_hull_7
v 0.028869 -0.145156 0.018053
v 0.028846 -0.166202 0.020691
v 0.039767 -0.165076 0.021644
v 0.039778 -0.158733 0.000824
v 0.039748 -0.149283 0.020646
v 0.028926 -0.144879 0.006724
v 0.028900 -0.165214 0.002367
v 0.039736 -0.168045 0.006724
v 0.029477 -0.151087 0.023561
v 0.039753 -0.146552 0.007837
v 0.029184 -0.150537 0.000718
vn 0.9475 0.0197 0.3190
vn 0.8417 -0.0263 -0.5393
vn 0.7574 0.1959 0.6229
vn -0.9998 0.0042 -0.0172
vn -0.8680 -0.4952 -0.0366
vn -0.9441 -0.3297 -0.0003
vn 0.8826 -0.2545 -0.3954
vn 0.0838 -0.9774 0.1943
vn -0.0667 -0.1834 0.9808
vn 0.9219 0.1947 -0.3350
vn 0.3059 0.9311 0.1986
vn -0.8921 0.2977 0.3400
vn 0.1502 0.9883 0.0249
vn -0.2324 -0.9712 -0.0530
vn 0.1956 -0.5255 -0.8280
vn -0.5755 0.3271 0.7495
vn 0.3675 0.4646 -0.8057
vn 0.1801 0.7198 -0.6704
vn -0.9984 0.0131 -0.0552
vn -0.0751 -0.1099 -0.9911
vt 0.874837 0.163993
vt 0.052832 0.399431
vt 0.832664 0.778431
vt 0.266724 1.000000
vt 0.107148 0.147834
vt 0.832670 0.123828
vt 0.266724 0.000000
vt 0.984180 0.729727
vt 0.324783 0.912747
vt 0.750579 0.975241
vt 0.013914 0.752734
s 1
usemtl None.009
f 3/1/1 4/2/2 5/3/3
f 6/4/4 7/5/5 2/6/6
f 4/2/2 3/1/1 8/7/7
f 3/1/8 2/6/8 8/7/8
f 3/1/9 9/8/9 2/6/9
f 5/3/3 4/2/2 10/9/10
f 5/3/11 10/9/11 1/10/11
f 6/4/4 2/6/6 1/10/12
f 10/9/13 6/4/13 1/10/13
f 8/7/14 2/6/6 7/5/5
f 8/7/7 7/5/15 4/2/2
f 9/8/16 3/1/1 5/3/3
f 4/2/2 11/11/17 10/9/10
f 11/11/18 6/4/18 10/9/18
f 7/5/5 6/4/4 11/11/19
f 4/2/20 7/5/20 11/11/20
f 9/8/16 5/3/3 1/10/12
f 2/6/6 9/8/16 1/10/12
