# Blender 4.4.3
# www.blender.org
mtllib banana4.mtl
o textured_simple_reoriented.010_hull_4_textured_simple_reoriente
v -0.049409 -0.032229 0.019470
v -0.057577 -0.038027 0.020297
v -0.061989 -0.031806 0.024620
v -0.058972 -0.031797 0.009625
v -0.068152 -0.031865 0.020398
v -0.070861 -0.038020 0.020594
v -0.070432 -0.037878 0.014084
v -0.063910 -0.038054 0.011156
v -0.064987 -0.037864 0.023987
v -0.067580 -0.031787 0.014036
vn -0.1235 0.9724 0.1981
vn 0.0184 0.9998 0.0066
vn -0.3296 0.8147 0.4771
vn -0.0072 -0.9999 0.0126
vn -0.0006 -1.0000 -0.0038
vn -0.1040 -0.9702 -0.2189
vn -0.3490 -0.5711 -0.7430
vn -0.4971 0.1568 0.8534
vn 0.0078 0.9999 0.0130
vn -0.4464 0.2022 -0.8717
vn 0.0369 0.9993 0.0080
vn -0.9147 0.4009 -0.0515
vn -0.9032 0.4223 -0.0760
vn 0.5168 -0.7787 -0.3557
vn 0.5669 -0.5885 -0.5765
vn -0.4054 0.0976 -0.9089
vn 0.0005 -0.9990 0.0451
vn 0.3929 -0.4382 0.8084
vn 0.3570 -0.2701 0.8942
vn -0.5467 0.2662 0.7939
vt 0.433938 0.993882
vt 0.579810 0.012988
vt 0.142813 0.723901
vt 0.606001 0.713409
vt 0.000000 0.744239
vt 0.045059 0.301845
vt 0.339345 0.106171
vt 0.287981 0.970674
vt 0.161316 0.279231
vt 0.965659 0.669271
s 1
usemtl None.012
f 3/1/1 4/2/2 5/3/3
f 2/4/4 6/5/5 7/6/6
f 2/4/4 7/6/6 8/7/7
f 6/5/8 9/8/8 3/1/8
f 5/3/3 4/2/2 10/9/9
f 4/2/10 7/6/10 10/9/10
f 4/2/2 3/1/1 1/10/11
f 6/5/12 5/3/12 7/6/12
f 5/3/13 10/9/13 7/6/13
f 2/4/14 8/7/14 1/10/14
f 8/7/15 4/2/15 1/10/15
f 7/6/6 4/2/16 8/7/7
f 6/5/5 2/4/4 9/8/17
f 2/4/18 1/10/18 9/8/18
f 1/10/19 3/1/19 9/8/19
f 6/5/20 3/1/1 5/3/3
