# Blender 4.4.3
# www.blender.org
mtllib banana1.mtl
o textured_simple_reoriented.010_hull_1_textured_simple_reoriente
v 0.042838 0.019924 0.002486
v 0.043242 0.024285 0.010810
v 0.004589 -0.010798 0.007424
v 0.004715 0.011980 0.034683
v 0.004594 0.014466 -0.001383
v 0.043349 0.002347 -0.003321
v 0.043300 0.009217 0.034046
v 0.043372 -0.012706 0.023062
v 0.004723 0.024835 0.023110
v 0.004597 0.000916 -0.003296
v 0.004597 -0.009012 0.026011
v 0.004955 0.023604 0.005089
v 0.043300 -0.008493 0.002227
v 0.043122 -0.002078 0.031299
v 0.042970 -0.013412 0.011086
v 0.042473 0.022419 0.024207
v 0.012989 0.026971 0.015624
vn -0.8496 -0.3557 -0.3894
vn -0.8633 -0.1894 0.4679
vn -0.9029 0.0704 -0.4241
vn 0.8412 -0.2368 -0.4861
vn 1.0000 0.0004 0.0043
vn 0.9999 -0.0149 0.0031
vn 0.9999 0.0067 -0.0124
vn -0.9999 0.0109 0.0007
vn -0.6744 -0.1908 -0.7133
vn -0.8465 -0.1992 0.4937
vn -0.9986 0.0510 -0.0163
vn 0.8867 -0.2219 -0.4057
vn 0.0018 -0.6126 0.7904
vn -0.0132 -0.8740 -0.4858
vn -0.0587 -0.6739 -0.7365
vn 0.0561 0.5989 0.7989
vn -0.0058 0.1398 -0.9902
vn -0.0736 -0.9954 0.0612
vn -0.0872 -0.9916 0.0953
vn 0.9931 -0.1145 -0.0266
vn 0.0162 -0.4556 -0.8900
vn -0.3075 0.9490 -0.0688
vn 0.0320 0.9447 -0.3263
vn 0.0510 0.9441 0.3257
vn 0.0212 0.6689 0.7430
vn -0.0009 -0.2363 0.9717
vn 0.9967 -0.0336 0.0736
vn -0.0581 -0.3809 0.9228
vn 0.0510 0.3146 -0.9478
vn 0.0001 0.5780 -0.8161
vn 0.0538 0.8834 -0.4655
vn 0.9988 -0.0392 -0.0279
vn 0.1101 0.9835 0.1433
vn 0.9905 0.1165 0.0731
vt 0.081011 0.000000
vt 0.623700 0.012402
vt 0.702464 0.000000
vt 0.397956 1.000000
vt 0.570201 1.000000
vt 0.036060 1.000000
vt 0.805197 0.963848
vt 0.958507 0.003989
vt 0.364462 0.000000
vt 0.131983 0.000000
vt 0.932302 0.022696
vt 0.123948 1.000000
vt 0.289136 0.995954
vt 0.000000 0.991474
vt 0.900701 0.956381
vt 1.000000 0.224500
vt 0.951568 0.977158
s 1
usemtl None.012
f 3/1/1 4/2/2 5/3/3
f 6/4/4 7/5/5 8/6/6
f 7/5/5 6/4/4 1/7/7
f 5/3/3 4/2/2 9/8/8
f 3/1/1 5/3/3 10/9/9
f 4/2/2 3/1/1 11/10/10
f 5/3/3 9/8/8 12/11/11
f 6/4/4 8/6/6 13/12/12
f 8/6/13 14/13/13 11/10/13
f 13/12/14 15/14/14 3/1/14
f 10/9/9 13/12/15 3/1/1
f 4/2/16 7/5/16 16/15/16
f 5/3/3 6/4/17 10/9/9
f 3/1/18 15/14/18 8/6/18
f 11/10/19 3/1/19 8/6/19
f 15/14/20 13/12/12 8/6/6
f 13/12/12 10/9/21 6/4/4
f 12/11/22 9/8/22 17/16/22
f 2/17/23 12/11/23 17/16/23
f 16/15/24 17/16/24 9/8/24
f 4/2/25 16/15/25 9/8/25
f 7/5/26 4/2/26 14/13/26
f 8/6/6 7/5/5 14/13/27
f 4/2/2 11/10/10 14/13/28
f 6/4/29 5/3/29 1/7/29
f 1/7/30 5/3/30 12/11/30
f 2/17/31 1/7/31 12/11/31
f 7/5/5 1/7/7 2/17/32
f 17/16/33 16/15/33 2/17/33
f 16/15/34 7/5/34 2/17/34
