# Blender 4.4.3
# www.blender.org
mtllib banana2.mtl
o textured_simple_reoriented.010_hull_2_textured_simple_reoriente
v 0.114853 -0.030171 0.008792
v 0.115974 -0.026828 0.022200
v 0.043307 0.001340 -0.003024
v 0.043307 -0.009806 0.026172
v 0.043307 0.019384 0.002553
v 0.044685 0.010642 0.034570
v 0.085270 -0.009181 0.031625
v 0.095787 -0.002597 0.026825
v 0.115793 -0.012431 0.015670
v 0.043493 -0.013529 0.008041
v 0.101815 -0.030836 0.018854
v 0.100705 -0.000955 0.006164
v 0.096764 0.004624 0.016657
v 0.070147 0.016375 0.006450
v 0.089041 -0.025895 0.006068
v 0.117438 -0.018993 0.007804
v 0.070528 0.006919 -0.000067
v 0.092497 -0.013232 -0.001005
v 0.043917 0.024302 0.020681
v 0.074143 0.015074 0.021582
vn -1.0000 -0.0045 -0.0017
vn -1.0000 0.0011 0.0066
vn -0.9998 0.0121 0.0149
vn -0.1142 -0.3708 0.9217
vn 0.5803 0.3424 0.7389
vn -0.3113 -0.9315 0.1881
vn -0.0985 -0.5603 0.8224
vn 0.6559 0.7403 -0.1473
vn 0.5908 0.6300 0.5041
vn 0.4733 0.8390 -0.2683
vn 0.3516 0.1156 0.9290
vn 0.2220 0.3175 0.9219
vn -0.9998 -0.0175 -0.0067
vn -0.1935 -0.5873 -0.7859
vn 0.6985 0.6146 -0.3666
vn 0.9868 0.0769 0.1422
vn 0.0432 0.2950 -0.9545
vn 0.2747 0.3413 -0.8989
vn 0.0800 0.1332 -0.9879
vn 0.1802 0.5631 -0.8065
vn 0.3040 0.5489 -0.7787
vn -0.9958 0.0317 0.0862
vn -0.9994 0.0223 0.0276
vn -0.1013 -0.4639 -0.8801
vn 0.0108 -0.4899 -0.8717
vn 0.2977 -0.1522 -0.9424
vn 0.3752 0.2674 -0.8875
vn -0.2648 -0.9585 -0.1058
vn 0.9735 -0.2273 -0.0247
vn -0.1343 -0.9620 -0.2376
vn 0.1452 0.9536 -0.2636
vn 0.2919 0.9564 0.0052
vn 0.4136 0.9099 -0.0310
vn 0.2636 0.5566 0.7878
vn 0.4464 0.7088 0.5462
vn 0.1948 0.7047 0.6823
vn -0.0481 -0.5344 0.8438
vn 0.2175 -0.9512 0.2190
vt 0.000000 0.588081
vt 0.000000 0.388192
vt 0.000000 0.911677
vt 0.021235 0.707996
vt 0.562036 0.404859
vt 0.707936 0.517476
vt 0.971306 0.094856
vt 0.977810 0.341117
vt 0.001981 0.346744
vt 0.781642 0.021888
vt 0.774278 0.546923
vt 0.721115 0.646975
vt 0.366983 0.846521
vt 0.625883 0.111660
vt 1.000000 0.223436
vt 0.367201 0.688133
vt 0.665884 0.330684
vt 0.008332 0.971770
vt 0.955395 0.029934
vt 0.401268 0.827147
s 1
usemtl None.012
f 3/1/1 4/2/2 5/3/3
f 6/4/4 4/2/4 7/5/4
f 8/6/5 2/7/5 9/8/5
f 4/2/6 10/9/6 11/10/6
f 7/5/7 4/2/7 11/10/7
f 9/8/8 12/11/8 13/12/8
f 8/6/9 9/8/9 13/12/9
f 12/11/10 14/13/10 13/12/10
f 2/7/11 8/6/11 7/5/11
f 8/6/12 6/4/12 7/5/12
f 4/2/2 3/1/1 10/9/13
f 3/1/14 15/14/14 10/9/14
f 12/11/15 9/8/15 16/15/15
f 9/8/16 2/7/16 16/15/16
f 3/1/17 5/3/17 17/16/17
f 12/11/18 18/17/18 17/16/18
f 18/17/19 3/1/19 17/16/19
f 5/3/20 14/13/20 17/16/20
f 14/13/21 12/11/21 17/16/21
f 4/2/22 6/4/22 19/18/22
f 5/3/3 4/2/2 19/18/23
f 15/14/24 3/1/24 18/17/24
f 1/19/25 15/14/25 18/17/25
f 16/15/26 1/19/26 18/17/26
f 12/11/27 16/15/27 18/17/27
f 11/10/28 10/9/28 15/14/28
f 16/15/29 2/7/29 1/19/29
f 11/10/30 15/14/30 1/19/30
f 5/3/31 19/18/31 14/13/31
f 19/18/32 20/20/32 14/13/32
f 20/20/33 13/12/33 14/13/33
f 6/4/34 8/6/34 20/20/34
f 8/6/35 13/12/35 20/20/35
f 19/18/36 6/4/36 20/20/36
f 7/5/37 11/10/37 2/7/37
f 11/10/38 1/19/38 2/7/38
