# Blender 4.4.3
# www.blender.org
mtllib banana5.mtl
o textured_simple_reoriented.010_hull_5_textured_simple_reoriente
v -0.061756 -0.031570 0.025052
v -0.020683 -0.014810 0.025290
v -0.020631 0.005469 0.033854
v -0.020759 -0.016415 0.006400
v -0.020670 0.021355 0.010101
v -0.020540 0.003517 -0.004830
v -0.069035 -0.032245 0.016884
v -0.063641 -0.010790 0.018625
v -0.054458 -0.031787 0.011411
v -0.050523 -0.031455 0.022232
v -0.050948 -0.020051 0.000928
v -0.054852 -0.012817 0.028978
v -0.049345 0.004145 0.023992
v -0.022240 0.020246 0.021843
v -0.059627 -0.004221 0.004430
v -0.048008 -0.002237 -0.000729
v -0.040738 0.012836 0.004732
vn 0.1518 -0.3849 0.9104
vn 0.7441 -0.4901 0.4540
vn 0.9171 -0.1575 0.3663
vn 0.9276 -0.3722 0.0318
vn 1.0000 -0.0026 0.0027
vn 0.9999 -0.0036 0.0130
vn 0.3978 -0.9100 -0.1167
vn -0.0587 -0.9696 -0.2374
vn -0.2655 -0.5969 -0.7571
vn -0.2023 -0.7714 -0.6033
vn -0.3178 0.3609 0.8768
vn 0.2121 -0.4815 -0.8504
vn 0.2090 -0.6855 -0.6974
vn -0.9554 0.2526 -0.1532
vn -0.0670 0.6401 -0.7653
vn 0.4802 -0.8742 0.0723
vn 0.2116 -0.5301 0.8211
vn -0.3981 0.9167 0.0334
vn -0.4941 0.8537 0.1644
vn -0.4226 0.4819 -0.7676
vn -0.2200 0.4244 -0.8784
vn 0.9623 0.2268 0.1501
vn -0.2874 0.5851 0.7583
vn -0.1329 -0.0700 -0.9886
vn 0.0467 -0.9981 0.0409
vn 0.0164 -0.9996 0.0247
vn -0.7366 0.6687 0.1012
vn -0.6701 0.7414 0.0351
vn -0.7425 0.1334 0.6564
vn -0.7427 0.1337 0.6561
vn -0.7447 0.1369 0.6533
vn -0.6581 0.4010 0.6372
vn -0.7451 0.1377 0.6526
vn -0.5946 -0.1513 -0.7897
vn -0.4031 -0.0186 -0.9150
vn -0.0374 -0.1916 0.9808
vt 0.013513 0.126262
vt 0.332184 1.000000
vt 0.701607 1.000000
vt 0.311838 0.996527
vt 1.000000 1.000000
vt 0.657595 0.997102
vt 0.006247 0.368043
vt 0.000000 0.284744
vt 0.000000 0.000000
vt 0.217746 0.377629
vt 0.356828 0.286070
vt 0.685395 0.420673
vt 0.395111 0.090349
vt 0.513689 0.205432
vt 0.831754 0.606331
vt 0.947899 0.949467
vt 0.548384 0.431232
s 1
usemtl None.012
f 1/1/1 2/2/2 3/3/3
f 4/4/4 5/5/5 3/3/3
f 5/5/5 4/4/4 6/6/6
f 4/4/4 3/3/3 2/2/2
f 4/4/7 10/7/7 9/8/7
f 7/9/8 11/10/9 9/8/10
f 12/11/11 3/3/11 13/12/11
f 11/10/12 6/6/12 4/4/12
f 9/8/13 11/10/13 4/4/13
f 7/9/14 8/13/14 15/14/14
f 17/15/15 5/5/15 6/6/15
f 10/7/16 4/4/4 2/2/2
f 10/7/17 2/2/17 1/1/17
f 14/16/18 5/5/18 17/15/18
f 13/12/19 14/16/19 17/15/19
f 15/14/20 17/15/20 16/17/20
f 17/15/21 6/6/21 16/17/21
f 3/3/22 5/5/22 14/16/22
f 13/12/23 3/3/23 14/16/23
f 16/17/24 6/6/24 11/10/24
f 7/9/8 9/8/10 1/1/25
f 9/8/26 10/7/26 1/1/26
f 8/13/27 13/12/27 15/14/27
f 13/12/28 17/15/28 15/14/28
f 8/13/29 7/9/30 12/11/31
f 13/12/32 8/13/32 12/11/32
f 7/9/30 1/1/33 12/11/31
f 7/9/34 15/14/34 11/10/34
f 15/14/35 16/17/35 11/10/35
f 12/11/36 1/1/36 3/3/36
