# Blender 4.4.3
# www.blender.org
mtllib banana3.mtl
o textured_simple_reoriented.010_hull_3_textured_simple_reoriente
v -0.069327 -0.038142 0.012535
v -0.063064 -0.037996 0.011488
v -0.068165 -0.050512 0.010654
v -0.065285 -0.038020 0.023875
v -0.057773 -0.038319 0.020609
v -0.064715 -0.052867 0.019741
v -0.074704 -0.048855 0.012399
v -0.070635 -0.050827 0.023402
v -0.074796 -0.047859 0.020266
v -0.071346 -0.038308 0.020749
v -0.070734 -0.052567 0.018466
vn -0.1176 0.8274 -0.5491
vn 0.4472 0.5447 -0.7095
vn -0.1664 0.1329 -0.9771
vn -0.0034 1.0000 0.0063
vn 0.8200 -0.3018 -0.4864
vn 0.4830 0.8390 -0.2505
vn -0.6229 -0.7770 0.0911
vn -0.9012 0.4063 -0.1508
vn -0.9136 0.3878 -0.1224
vn -0.9383 0.3417 -0.0542
vn 0.3846 -0.1940 0.9024
vn 0.4408 -0.2616 0.8586
vn -0.8176 -0.5378 0.2060
vn -0.0514 0.9987 0.0076
vn -0.8736 0.4411 -0.2058
vn -0.3148 -0.8874 -0.3369
vn -0.1170 -0.9359 0.3323
vn -0.4585 0.1592 0.8743
vn -0.5260 0.1476 0.8376
vn 0.8316 -0.3722 -0.4122
vn 0.0053 -0.9675 -0.2528
vn -0.2259 0.1257 -0.9660
vt 0.375845 0.992099
vt 0.721102 1.000000
vt 0.430980 0.173704
vt 0.596095 1.000000
vt 0.983783 0.980651
vt 0.095447 0.275960
vt 0.282503 0.167823
vt 0.038462 0.333491
vt 0.265671 0.955959
vt 0.595629 0.033355
vt 0.271478 0.043256
s 1
usemtl None.012
f 1/1/1 2/2/2 3/3/3
f 4/4/4 2/2/2 1/1/1
f 3/3/5 2/2/2 5/5/6
f 7/6/7 8/7/7 9/8/7
f 10/9/8 7/6/9 9/8/10
f 2/2/2 4/4/4 5/5/6
f 4/4/11 8/7/11 5/5/11
f 8/7/12 6/10/12 5/5/12
f 8/7/13 7/6/13 11/11/13
f 4/4/4 1/1/1 10/9/14
f 1/1/15 7/6/9 10/9/8
f 3/3/16 11/11/16 7/6/16
f 11/11/17 6/10/17 8/7/17
f 8/7/18 4/4/18 10/9/18
f 9/8/19 8/7/19 10/9/19
f 3/3/20 5/5/20 6/10/20
f 11/11/21 3/3/21 6/10/21
f 7/6/22 1/1/22 3/3/22
