# Blender 4.4.3
# www.blender.org
mtllib banana6.mtl
o textured_simple_reoriented.010_hull_6
v -0.020452 0.019589 0.004066
v 0.004557 0.019290 0.000552
v 0.004591 0.012562 0.033951
v 0.004645 -0.003696 -0.001156
v 0.004466 -0.010041 0.023595
v 0.004590 0.024636 0.008133
v -0.020237 0.013166 0.030720
v -0.020662 0.000283 0.033359
v -0.020670 0.009215 -0.002037
v -0.020577 -0.015282 0.024099
v 0.004659 0.001581 0.032847
v -0.020529 -0.017572 0.012162
v -0.020465 -0.007808 -0.002428
v 0.004472 -0.010951 0.008234
v -0.019354 0.023042 0.016492
v 0.004590 0.006265 -0.003351
v 0.003891 0.024927 0.022234
vn 0.8748 -0.3856 -0.2934
vn 0.8980 -0.0292 0.4390
vn 1.0000 -0.0079 0.0007
vn 0.9998 0.0203 0.0071
vn 1.0000 0.0044 -0.0073
vn -0.9992 0.0364 0.0168
vn -0.9997 0.0216 0.0070
vn -0.9999 0.0119 0.0056
vn -1.0000 0.0048 -0.0006
vn -1.0000 -0.0056 -0.0017
vn 0.8630 -0.0452 0.5032
vn -1.0000 -0.0078 -0.0047
vn 0.1317 -0.8241 -0.5509
vn -0.9872 0.1528 0.0448
vn -0.9999 -0.0118 -0.0123
vn 1.0000 0.0043 -0.0057
vn 0.0843 -0.2140 -0.9732
vn -0.0493 0.0223 -0.9985
vn 0.9938 0.1010 0.0472
vn -0.0710 0.8153 -0.5746
vn -0.1215 0.2030 0.9716
vn -0.0916 0.5772 0.8115
vn -0.1122 0.3545 0.9283
vn -0.1517 0.9557 -0.2522
vn -0.0748 0.9969 -0.0243
vn 0.0435 -0.5106 0.8587
vn 0.0252 -0.0998 0.9947
vn 0.1448 -0.6177 0.7729
vn -0.2016 0.8104 0.5500
vn -0.0778 0.6834 0.7259
vn 0.2049 -0.9611 0.1852
vn 0.9061 -0.3427 -0.2481
vn 0.2640 -0.9628 0.0571
vn 0.1587 -0.7827 -0.6018
vn -0.0163 0.2870 -0.9578
vn -0.1141 0.5055 -0.8552
vt 0.328929 0.072335
vt 0.699037 0.991748
vt 0.185622 0.712405
vt 0.984710 0.307083
vt 0.869959 0.119459
vt 0.691098 0.904771
vt 0.877651 0.231543
vt 0.418132 0.963565
vt 0.623062 0.035137
vt 0.054116 0.728181
vt 0.449369 0.953063
vt 0.005322 0.415322
vt 0.239819 0.053941
vt 0.156505 0.312031
vt 0.935001 0.557072
vt 0.553880 0.000000
vt 0.971383 0.703429
s 1
usemtl None.012
f 4/1/1 3/2/2 5/3/3
f 3/2/2 4/1/1 6/4/4
f 6/4/4 4/1/1 2/5/5
f 7/6/6 1/7/7 8/8/8
f 9/9/9 10/10/10 8/8/8
f 1/7/7 9/9/9 8/8/8
f 5/3/3 3/2/2 11/11/11
f 10/10/10 9/9/9 12/12/12
f 12/12/13 13/13/13 14/14/13
f 1/7/14 7/6/14 15/15/14
f 12/12/12 9/9/9 13/13/15
f 2/5/5 4/1/1 16/16/16
f 4/1/17 13/13/17 16/16/17
f 13/13/18 9/9/18 16/16/18
f 3/2/2 6/4/4 17/17/19
f 6/4/20 2/5/20 1/7/20
f 8/8/21 3/2/22 7/6/23
f 6/4/24 1/7/24 15/15/24
f 17/17/25 6/4/25 15/15/25
f 10/10/26 11/11/26 8/8/26
f 3/2/2 8/8/27 11/11/11
f 11/11/28 10/10/28 5/3/28
f 17/17/29 15/15/29 7/6/29
f 3/2/22 17/17/30 7/6/23
f 5/3/31 10/10/31 12/12/31
f 4/1/1 5/3/3 14/14/32
f 5/3/33 12/12/33 14/14/33
f 14/14/32 13/13/34 4/1/1
f 16/16/35 9/9/35 2/5/35
f 9/9/36 1/7/36 2/5/36
